<?xml version="1.0" standalone="no"?>
<!DOCTYPE svg PUBLIC "-//W3C//DTD SVG 20010904//EN"
 "http://www.w3.org/TR/2001/REC-SVG-20010904/DTD/svg10.dtd">
<svg version="1.0" xmlns="http://www.w3.org/2000/svg"
 width="276.000000pt" height="276.000000pt" viewBox="0 0 276.000000 276.000000"
 preserveAspectRatio="xMidYMid meet">
<metadata>
Created by potrace 1.14, written by Peter Selinger 2001-2017
</metadata>
<g transform="translate(0.000000,276.000000) scale(0.100000,-0.100000)"
fill="#000000" stroke="none">
<path d="M1738 2489 c-20 -11 -23 -37 -8 -71 8 -17 6 -40 -8 -88 l-19 -65 -79
-1 c-144 -1 -260 -58 -344 -171 l-45 -60 -74 -8 c-95 -9 -168 -28 -214 -55
-38 -23 -77 -89 -77 -131 0 -77 113 -207 233 -269 126 -65 200 -101 223 -110
20 -8 22 -13 14 -35 -5 -13 -7 -32 -3 -41 8 -22 132 -114 154 -114 11 0 29 19
46 50 22 40 33 50 53 50 31 -1 187 -34 194 -41 4 -3 10 -27 15 -52 8 -43 6
-49 -20 -79 -24 -26 -29 -40 -29 -86 0 -46 4 -58 29 -83 16 -16 39 -29 51 -29
26 0 67 40 76 74 14 56 -20 132 -65 147 -7 3 -14 27 -16 56 l-4 52 123 -6
c179 -8 283 22 333 97 28 40 30 106 6 158 -22 47 -103 128 -176 177 -33 22
-59 47 -61 59 -21 116 -43 187 -77 236 -48 72 -123 142 -189 175 -49 25 -52
28 -46 58 3 18 8 51 12 74 4 29 14 47 30 58 29 18 31 46 6 68 -21 20 -21 20
-44 6z"/>
<path d="M1129 1306 c-39 -78 -48 -196 -15 -196 19 0 46 33 46 58 0 11 7 25
17 30 13 8 14 17 8 48 -4 22 -7 51 -7 67 2 39 -29 35 -49 -7z"/>
<path d="M1337 1133 c-80 -128 -147 -253 -147 -276 0 -22 16 -40 85 -94 47
-37 85 -70 85 -75 0 -15 -23 -8 -56 17 -37 28 -44 30 -44 13 1 -7 22 -29 47
-48 26 -19 71 -54 102 -77 31 -24 59 -43 63 -43 18 0 6 20 -29 47 -21 18 -33
34 -29 41 5 8 33 -9 86 -49 55 -43 85 -60 101 -57 18 2 42 34 106 143 49 82
83 151 83 167 0 26 -41 61 -343 291 -61 47 -81 47 -110 0z"/>
<path d="M800 748 c-22 -35 -40 -68 -40 -75 0 -16 150 -133 170 -133 9 0 30
25 48 56 32 55 39 84 25 98 -5 4 -8 19 -8 33 0 17 -12 35 -38 56 -33 27 -41
30 -58 19 -14 -9 -25 -10 -39 -2 -18 10 -25 4 -60 -52z"/>
<path d="M1811 517 c-8 -10 -7 -51 3 -155 8 -78 17 -146 21 -152 9 -15 61 -12
74 4 12 15 -3 252 -20 294 -10 25 -59 31 -78 9z"/>
</g>
</svg>
